<?xml version="1.0" encoding="utf-8"?>
<!-- Generator: Adobe Illustrator 23.1.0, SVG Export Plug-In . SVG Version: 6.00 Build 0)  -->
<svg version="1.1" id="Layer_1" xmlns="http://www.w3.org/2000/svg" xmlns:xlink="http://www.w3.org/1999/xlink" x="0px" y="0px"
	 viewBox="0 0 794.33 350.67" style="enable-background:new 0 0 794.33 350.67;" xml:space="preserve">
<style type="text/css">
	.st0{fill:#80C242;}
</style>
<g>
	<g>
		<path class="st0" d="M12.04,52.69c0-13.38,8.57-20.88,20.08-20.88c11.51,0,20.08,7.5,20.08,20.88v56.75h84.05V52.69
			c0-13.38,8.57-20.88,20.08-20.88c11.51,0,20.08,7.5,20.08,20.88v152.04c0,13.38-8.57,20.88-20.08,20.88
			c-11.51,0-20.08-7.5-20.08-20.88v-58.35H52.2v58.35c0,13.38-8.57,20.88-20.08,20.88c-11.51,0-20.08-7.5-20.08-20.88V52.69z"/>
		<path class="st0" d="M331.1,200.44c0,9.9,0,25.16-18.47,25.16c-11.24,0-15.79-6.16-18.47-16.33
			c-9.9,11.78-21.95,17.93-36.67,17.93c-36.14,0-63.71-30.78-63.71-74.14c0-42.29,28.37-74.68,63.71-74.68
			c14.19,0,28.11,5.62,36.67,17.67c1.07-9.37,9.1-16.06,18.47-16.06c18.47,0,18.47,15.26,18.47,25.16V200.44z M262.85,191.88
			c20.08,0,29.71-20.34,29.71-38.81s-9.37-39.35-29.71-39.35c-21.15,0-30.51,20.88-30.51,39.35S241.97,191.88,262.85,191.88z"/>
		<path class="st0" d="M353.05,101.4c0-12.85,8.03-21.41,19.27-21.41c9.9,0,16.33,5.35,17.67,14.19c7.49-10.44,19-15.79,37.21-15.79
			c30.25,0,52.73,19.27,52.73,51.93v73.88c0,12.85-8.03,21.41-19.27,21.41s-19.27-8.57-19.27-21.41V137
			c0-17.93-11.24-26.5-25.16-26.5c-15.79,0-24.63,11.51-24.63,26.5v67.19c0,12.85-8.03,21.41-19.27,21.41s-19.27-8.57-19.27-21.41
			V101.4z"/>
		<path class="st0" d="M501.87,101.4c0-12.85,8.03-21.41,19.27-21.41c9.9,0,16.33,5.35,17.67,14.19c7.49-10.44,19-15.79,37.21-15.79
			c30.25,0,52.73,19.27,52.73,51.93v73.88c0,12.85-8.03,21.41-19.27,21.41c-11.24,0-19.27-8.57-19.27-21.41V137
			c0-17.93-11.24-26.5-25.16-26.5c-15.79,0-24.63,11.51-24.63,26.5v67.19c0,12.85-8.03,21.41-19.27,21.41s-19.27-8.57-19.27-21.41
			V101.4z"/>
		<path class="st0" d="M782.38,200.44c0,9.9,0,25.16-18.47,25.16c-11.24,0-15.79-6.16-18.47-16.33
			c-9.9,11.78-21.95,17.93-36.67,17.93c-36.13,0-63.71-30.78-63.71-74.14c0-42.29,28.37-74.68,63.71-74.68
			c14.19,0,28.11,5.62,36.67,17.67c1.07-9.37,9.1-16.06,18.47-16.06c18.47,0,18.47,15.26,18.47,25.16V200.44z M714.13,191.88
			c20.08,0,29.71-20.34,29.71-38.81s-9.37-39.35-29.71-39.35c-21.15,0-30.51,20.88-30.51,39.35S693.25,191.88,714.13,191.88z"/>
	</g>
	<g>
		<g>
			<path class="st0" d="M57.18,327.6c-2.65,1.33-7.96,2.66-14.77,2.66c-15.76,0-27.63-9.96-27.63-28.29
				c0-17.51,11.86-29.37,29.2-29.37c6.97,0,11.37,1.49,13.27,2.49l-1.74,5.89c-2.74-1.33-6.64-2.32-11.28-2.32
				c-13.11,0-21.82,8.38-21.82,23.06c0,13.69,7.88,22.48,21.49,22.48c4.4,0,8.88-0.91,11.78-2.32L57.18,327.6z"/>
			<path class="st0" d="M101.39,309.02c0,14.85-10.29,21.32-19.99,21.32c-10.87,0-19.25-7.96-19.25-20.66
				c0-13.44,8.79-21.32,19.91-21.32C93.59,288.36,101.39,296.74,101.39,309.02z M69.53,309.43c0,8.79,5.06,15.43,12.2,15.43
				c6.97,0,12.2-6.55,12.2-15.6c0-6.8-3.4-15.43-12.03-15.43S69.53,301.8,69.53,309.43z"/>
			<path class="st0" d="M110.6,300.14c0-4.15-0.08-7.55-0.33-10.87h6.47l0.42,6.64h0.17c1.99-3.82,6.64-7.55,13.27-7.55
				c5.56,0,14.19,3.32,14.19,17.09v23.98h-7.3v-23.15c0-6.47-2.41-11.86-9.29-11.86c-4.81,0-8.54,3.4-9.79,7.47
				c-0.33,0.91-0.5,2.16-0.5,3.4v24.14h-7.3V300.14z"/>
			<path class="st0" d="M160.7,310.68c0.17,9.87,6.47,13.94,13.77,13.94c5.23,0,8.38-0.91,11.12-2.07l1.24,5.23
				c-2.57,1.16-6.97,2.49-13.36,2.49c-12.36,0-19.75-8.13-19.75-20.24s7.13-21.65,18.83-21.65c13.11,0,16.59,11.53,16.59,18.92
				c0,1.49-0.17,2.65-0.25,3.4H160.7z M182.11,305.45c0.08-4.65-1.91-11.86-10.12-11.86c-7.38,0-10.62,6.8-11.2,11.86H182.11z"/>
			<path class="st0" d="M226.82,327.93c-1.91,1-6.14,2.32-11.53,2.32c-12.11,0-19.99-8.21-19.99-20.49
				c0-12.36,8.46-21.32,21.57-21.32c4.31,0,8.13,1.08,10.12,2.07l-1.66,5.64c-1.74-1-4.48-1.91-8.46-1.91
				c-9.21,0-14.19,6.8-14.19,15.18c0,9.29,5.97,15.02,13.94,15.02c4.15,0,6.89-1.08,8.96-1.99L226.82,327.93z"/>
			<path class="st0" d="M245.23,277.74v11.53h10.45v5.56h-10.45v21.65c0,4.98,1.41,7.8,5.48,7.8c1.91,0,3.32-0.25,4.23-0.5
				l0.33,5.48c-1.41,0.58-3.65,1-6.47,1c-3.4,0-6.14-1.08-7.88-3.07c-2.07-2.16-2.82-5.72-2.82-10.45v-21.9h-6.22v-5.56h6.22v-9.62
				L245.23,277.74z"/>
			<path class="st0" d="M286.13,329.43l-0.58-5.06h-0.25c-2.24,3.15-6.55,5.97-12.28,5.97c-8.13,0-12.28-5.72-12.28-11.53
				c0-9.71,8.63-15.02,24.14-14.93v-0.83c0-3.32-0.91-9.29-9.13-9.29c-3.73,0-7.63,1.16-10.45,2.99l-1.66-4.81
				c3.32-2.16,8.13-3.57,13.19-3.57c12.28,0,15.26,8.38,15.26,16.43v15.02c0,3.48,0.17,6.89,0.66,9.62H286.13z M285.05,308.94
				c-7.96-0.17-17.01,1.24-17.01,9.04c0,4.73,3.15,6.97,6.89,6.97c5.23,0,8.54-3.32,9.71-6.72c0.25-0.75,0.41-1.58,0.41-2.32V308.94
				z"/>
			<path class="st0" d="M303.88,300.14c0-4.15-0.08-7.55-0.33-10.87h6.39l0.33,6.47h0.25c2.24-3.82,5.97-7.38,12.61-7.38
				c5.48,0,9.62,3.32,11.37,8.05h0.17c1.24-2.24,2.82-3.98,4.48-5.23c2.41-1.83,5.06-2.82,8.88-2.82c5.31,0,13.19,3.48,13.19,17.42
				v23.64h-7.13V306.7c0-7.72-2.82-12.36-8.71-12.36c-4.15,0-7.38,3.07-8.63,6.64c-0.33,1-0.58,2.32-0.58,3.65v24.81h-7.13v-24.06
				c0-6.39-2.82-11.03-8.38-11.03c-4.56,0-7.88,3.65-9.04,7.3c-0.41,1.08-0.58,2.32-0.58,3.57v24.22h-7.13V300.14z"/>
			<path class="st0" d="M409.4,309.02c0,14.85-10.29,21.32-19.99,21.32c-10.87,0-19.25-7.96-19.25-20.66
				c0-13.44,8.79-21.32,19.91-21.32C401.61,288.36,409.4,296.74,409.4,309.02z M377.55,309.43c0,8.79,5.06,15.43,12.2,15.43
				c6.97,0,12.2-6.55,12.2-15.6c0-6.8-3.4-15.43-12.03-15.43S377.55,301.8,377.55,309.43z"/>
			<path class="st0" d="M417.61,321.96c2.16,1.41,5.97,2.9,9.62,2.9c5.31,0,7.8-2.66,7.8-5.97c0-3.48-2.07-5.39-7.47-7.38
				c-7.22-2.57-10.62-6.55-10.62-11.37c0-6.47,5.23-11.78,13.85-11.78c4.07,0,7.63,1.16,9.87,2.49l-1.83,5.31
				c-1.58-1-4.48-2.32-8.21-2.32c-4.31,0-6.72,2.49-6.72,5.48c0,3.32,2.41,4.81,7.63,6.8c6.97,2.66,10.54,6.14,10.54,12.11
				c0,7.05-5.48,12.03-15.02,12.03c-4.4,0-8.46-1.08-11.28-2.74L417.61,321.96z"/>
			<path class="st0" d="M468.71,329.43c0.17-2.74,0.33-6.8,0.33-10.37v-48.53h7.22v25.22h0.17c2.57-4.48,7.22-7.38,13.69-7.38
				c9.96,0,17.01,8.3,16.92,20.49c0,14.35-9.04,21.49-18,21.49c-5.81,0-10.45-2.24-13.44-7.55h-0.25l-0.33,6.64H468.71z
				 M476.26,313.33c0,0.91,0.17,1.83,0.33,2.66c1.41,5.06,5.64,8.54,10.95,8.54c7.63,0,12.2-6.22,12.2-15.43
				c0-8.05-4.15-14.93-11.95-14.93c-4.98,0-9.62,3.4-11.12,8.96c-0.17,0.83-0.42,1.83-0.42,2.99V313.33z"/>
			<path class="st0" d="M524.38,277.99c0.08,2.49-1.74,4.48-4.65,4.48c-2.57,0-4.4-1.99-4.4-4.48c0-2.57,1.91-4.56,4.56-4.56
				C522.63,273.43,524.38,275.42,524.38,277.99z M516.25,329.43v-40.15h7.3v40.15H516.25z"/>
			<path class="st0" d="M539.72,310.68c0.17,9.87,6.47,13.94,13.77,13.94c5.23,0,8.38-0.91,11.12-2.07l1.25,5.23
				c-2.57,1.16-6.97,2.49-13.36,2.49c-12.36,0-19.75-8.13-19.75-20.24s7.13-21.65,18.83-21.65c13.11,0,16.59,11.53,16.59,18.92
				c0,1.49-0.17,2.65-0.25,3.4H539.72z M561.13,305.45c0.08-4.65-1.91-11.86-10.12-11.86c-7.38,0-10.62,6.8-11.2,11.86H561.13z"/>
			<path class="st0" d="M577.22,300.14c0-4.15-0.08-7.55-0.33-10.87h6.47l0.42,6.64h0.17c1.99-3.82,6.64-7.55,13.27-7.55
				c5.56,0,14.19,3.32,14.19,17.09v23.98h-7.3v-23.15c0-6.47-2.41-11.86-9.29-11.86c-4.81,0-8.55,3.4-9.79,7.47
				c-0.33,0.91-0.5,2.16-0.5,3.4v24.14h-7.3V300.14z"/>
			<path class="st0" d="M627.32,310.68c0.17,9.87,6.47,13.94,13.77,13.94c5.23,0,8.38-0.91,11.12-2.07l1.25,5.23
				c-2.57,1.16-6.97,2.49-13.36,2.49c-12.36,0-19.75-8.13-19.75-20.24s7.13-21.65,18.83-21.65c13.11,0,16.59,11.53,16.59,18.92
				c0,1.49-0.17,2.65-0.25,3.4H627.32z M648.73,305.45c0.08-4.65-1.91-11.86-10.12-11.86c-7.38,0-10.62,6.8-11.2,11.86H648.73z"/>
			<path class="st0" d="M663.82,321.96c2.16,1.41,5.97,2.9,9.62,2.9c5.31,0,7.8-2.66,7.8-5.97c0-3.48-2.07-5.39-7.47-7.38
				c-7.22-2.57-10.62-6.55-10.62-11.37c0-6.47,5.23-11.78,13.85-11.78c4.06,0,7.63,1.16,9.87,2.49l-1.83,5.31
				c-1.58-1-4.48-2.32-8.21-2.32c-4.31,0-6.72,2.49-6.72,5.48c0,3.32,2.41,4.81,7.63,6.8c6.97,2.66,10.54,6.14,10.54,12.11
				c0,7.05-5.48,12.03-15.02,12.03c-4.4,0-8.46-1.08-11.28-2.74L663.82,321.96z"/>
			<path class="st0" d="M706.46,277.74v11.53h10.45v5.56h-10.45v21.65c0,4.98,1.41,7.8,5.48,7.8c1.91,0,3.32-0.25,4.23-0.5
				l0.33,5.48c-1.41,0.58-3.65,1-6.47,1c-3.4,0-6.14-1.08-7.88-3.07c-2.07-2.16-2.82-5.72-2.82-10.45v-21.9h-6.22v-5.56h6.22v-9.62
				L706.46,277.74z"/>
			<path class="st0" d="M747.36,329.43l-0.58-5.06h-0.25c-2.24,3.15-6.55,5.97-12.28,5.97c-8.13,0-12.28-5.72-12.28-11.53
				c0-9.71,8.63-15.02,24.14-14.93v-0.83c0-3.32-0.91-9.29-9.13-9.29c-3.73,0-7.63,1.16-10.45,2.99l-1.66-4.81
				c3.32-2.16,8.13-3.57,13.19-3.57c12.28,0,15.27,8.38,15.27,16.43v15.02c0,3.48,0.17,6.89,0.66,9.62H747.36z M746.28,308.94
				c-7.96-0.17-17.01,1.24-17.01,9.04c0,4.73,3.15,6.97,6.89,6.97c5.23,0,8.55-3.32,9.71-6.72c0.25-0.75,0.42-1.58,0.42-2.32V308.94
				z"/>
			<path class="st0" d="M765.11,301.8c0-4.73-0.08-8.79-0.33-12.53h6.39l0.25,7.88h0.33c1.83-5.39,6.22-8.79,11.12-8.79
				c0.83,0,1.41,0.08,2.07,0.25v6.89c-0.75-0.17-1.49-0.25-2.49-0.25c-5.14,0-8.79,3.9-9.79,9.38c-0.17,1-0.33,2.16-0.33,3.4v21.4
				h-7.22V301.8z"/>
		</g>
	</g>
</g>
</svg>
