<?xml version="1.0" encoding="utf-8"?>
<!-- Generator: Adobe Illustrator 19.2.1, SVG Export Plug-In . SVG Version: 6.00 Build 0)  -->
<svg version="1.1" id="layer" xmlns="http://www.w3.org/2000/svg" xmlns:xlink="http://www.w3.org/1999/xlink" x="0px" y="0px"
	 viewBox="0 0 652 652" style="enable-background:new 0 0 652 652;" xml:space="preserve">
<style type="text/css">
	.st0{fill:#5B5C5C;}
</style>
<path class="st0" d="M242.6,425.3c0-1.1-0.8-1.9-2-1.9h-2.8v3.7h2.8C241.8,427.2,242.6,426.4,242.6,425.3 M235.8,433.4v-11.7h5.1
	c2.5,0,3.8,1.7,3.8,3.7c0,2-1.4,3.6-3.8,3.6h-3.1v4.4H235.8z"/>
<path class="st0" d="M253.8,429.1c0-1.5-0.9-2.8-2.4-2.8c-1.6,0-2.4,1.3-2.4,2.8c0,1.5,0.9,2.8,2.4,2.8
	C252.9,431.9,253.8,430.6,253.8,429.1 M247,429.1c0-2.4,1.6-4.4,4.3-4.4c2.7,0,4.3,2,4.3,4.4c0,2.4-1.6,4.5-4.3,4.5
	C248.7,433.6,247,431.5,247,429.1"/>
<polygon class="st0" points="269,424.9 267.2,431 265.2,424.9 263.6,424.9 261.6,431 259.8,424.9 257.9,424.9 260.5,433.4 
	262.4,433.4 264.4,427.2 266.3,433.4 268.3,433.4 270.9,424.9 "/>
<g>
	<path class="st0" d="M277.3,426.2c-1.6,0-2.3,1.2-2.4,2.2h4.8C279.7,427.4,279,426.2,277.3,426.2 M273.1,429.1
		c0-2.5,1.8-4.4,4.3-4.4c2.5,0,4.2,1.9,4.2,4.6v0.5H275c0.1,1.3,1.1,2.3,2.7,2.3c0.8,0,1.8-0.3,2.4-0.9l0.8,1.2
		c-0.9,0.8-2.1,1.2-3.4,1.2C274.9,433.6,273.1,431.8,273.1,429.1"/>
	<path class="st0" d="M284.7,433.4v-8.5h1.8v1.2c0.7-0.8,1.7-1.4,2.8-1.4v1.8c-0.2,0-0.3,0-0.6,0c-0.8,0-1.8,0.5-2.2,1.1v5.8H284.7z
		"/>
	<path class="st0" d="M296,426.2c-1.6,0-2.3,1.2-2.4,2.2h4.8C298.3,427.4,297.6,426.2,296,426.2 M291.7,429.1c0-2.5,1.8-4.4,4.3-4.4
		c2.5,0,4.2,1.9,4.2,4.6v0.5h-6.5c0.1,1.3,1.1,2.3,2.7,2.3c0.8,0,1.8-0.3,2.4-0.9l0.8,1.2c-0.9,0.8-2.1,1.2-3.4,1.2
		C293.6,433.6,291.7,431.8,291.7,429.1"/>
	<path class="st0" d="M309.3,430.8v-3.3c-0.4-0.6-1.3-1.1-2.2-1.1c-1.5,0-2.4,1.2-2.4,2.8c0,1.6,0.9,2.8,2.4,2.8
		C308,431.9,308.9,431.4,309.3,430.8 M309.3,433.4v-1.2c-0.7,0.8-1.6,1.4-2.7,1.4c-2.2,0-3.7-1.6-3.7-4.5c0-2.7,1.6-4.4,3.7-4.4
		c1.1,0,2.1,0.5,2.7,1.4v-4.4h1.8v11.7H309.3z"/>
	<path class="st0" d="M324.9,431.9c1.4,0,2.4-1.2,2.4-2.8c0-1.6-0.9-2.8-2.4-2.8c-0.9,0-1.8,0.5-2.2,1.1v3.4
		C323.1,431.5,324,431.9,324.9,431.9 M320.8,433.4v-11.7h1.8v4.4c0.7-0.9,1.7-1.4,2.7-1.4c2.2,0,3.8,1.7,3.8,4.4
		c0,2.8-1.6,4.5-3.8,4.5c-1.1,0-2.1-0.5-2.7-1.4v1.2H320.8z"/>
	<path class="st0" d="M332.3,435c0.2,0.1,0.5,0.1,0.7,0.1c0.6,0,1-0.2,1.2-0.7l0.4-1l-3.5-8.6h2l2.5,6.3l2.5-6.3h2l-4.1,10
		c-0.6,1.4-1.6,1.9-2.9,1.9c-0.3,0-0.8-0.1-1-0.1L332.3,435z"/>
	<path class="st0" d="M348.1,427.5c0-3.7,2.7-6,6.1-6c2.3,0,3.8,1.1,4.7,2.4l-1.7,1c-0.6-0.9-1.7-1.6-3-1.6c-2.3,0-4,1.8-4,4.2
		c0,2.4,1.7,4.2,4,4.2c1.2,0,2.2-0.5,2.8-1v-1.8h-3.5v-1.8h5.5v4.4c-1.1,1.3-2.8,2.1-4.8,2.1C350.8,433.6,348.1,431.2,348.1,427.5"
		/>
	<path class="st0" d="M368.7,429.1c0-1.5-0.9-2.8-2.4-2.8c-1.6,0-2.4,1.3-2.4,2.8c0,1.5,0.9,2.8,2.4,2.8
		C367.9,431.9,368.7,430.6,368.7,429.1 M362,429.1c0-2.4,1.6-4.4,4.3-4.4c2.7,0,4.3,2,4.3,4.4c0,2.4-1.6,4.5-4.3,4.5
		C363.6,433.6,362,431.5,362,429.1"/>
	<path class="st0" d="M380.2,429.1c0-1.5-0.9-2.8-2.4-2.8c-1.6,0-2.4,1.3-2.4,2.8c0,1.5,0.9,2.8,2.4,2.8
		C379.3,431.9,380.2,430.6,380.2,429.1 M373.4,429.1c0-2.4,1.6-4.4,4.3-4.4c2.7,0,4.3,2,4.3,4.4c0,2.4-1.6,4.5-4.3,4.5
		C375.1,433.6,373.4,431.5,373.4,429.1"/>
	<path class="st0" d="M391.3,430.6v-3.2c-0.4-0.6-1.3-1.1-2.2-1.1c-1.5,0-2.4,1.1-2.4,2.7s0.9,2.7,2.4,2.7
		C390,431.7,390.9,431.2,391.3,430.6 M385.3,435.5l0.9-1.3c0.7,0.8,1.6,1.1,2.7,1.1c1.2,0,2.5-0.6,2.5-2.4v-1
		c-0.6,0.9-1.6,1.4-2.7,1.4c-2.2,0-3.7-1.6-3.7-4.3c0-2.8,1.6-4.3,3.7-4.3c1.1,0,2,0.5,2.7,1.4v-1.2h1.8v8c0,3-2.3,3.9-4.3,3.9
		C387.4,436.8,386.3,436.5,385.3,435.5"/>
</g>
<rect x="396.9" y="421.7" class="st0" width="1.8" height="11.7"/>
<g>
	<path class="st0" d="M406.3,426.2c-1.6,0-2.3,1.2-2.4,2.2h4.8C408.7,427.4,408,426.2,406.3,426.2 M402.1,429.1
		c0-2.5,1.8-4.4,4.3-4.4c2.5,0,4.2,1.9,4.2,4.6v0.5H404c0.1,1.3,1.1,2.3,2.7,2.3c0.8,0,1.8-0.3,2.4-0.9l0.8,1.2
		c-0.9,0.8-2.1,1.2-3.4,1.2C403.9,433.6,402.1,431.8,402.1,429.1"/>
	<path class="st0" d="M420.1,433.4v-6.9h-1.4v-1.6h1.4v-0.5c0-1.8,1.1-2.9,2.7-2.9c0.8,0,1.5,0.2,2,0.7l-0.7,1.1
		c-0.2-0.2-0.6-0.4-1-0.4c-0.7,0-1.2,0.5-1.2,1.4v0.5h1.7v1.6h-1.7v6.9H420.1z"/>
	<path class="st0" d="M432.7,429.1c0-1.5-0.9-2.8-2.4-2.8c-1.6,0-2.4,1.3-2.4,2.8c0,1.5,0.9,2.8,2.4,2.8
		C431.8,431.9,432.7,430.6,432.7,429.1 M425.9,429.1c0-2.4,1.6-4.4,4.3-4.4c2.7,0,4.3,2,4.3,4.4c0,2.4-1.6,4.5-4.3,4.5
		C427.6,433.6,425.9,431.5,425.9,429.1"/>
	<path class="st0" d="M437.9,433.4v-8.5h1.8v1.2c0.7-0.8,1.7-1.4,2.8-1.4v1.8c-0.2,0-0.3,0-0.6,0c-0.8,0-1.8,0.5-2.2,1.1v5.8H437.9z
		"/>
</g>
<polygon class="st0" points="451.3,421.7 451.3,433.4 459.3,433.4 459.3,431.6 453.4,431.6 453.4,428.3 459.2,428.3 459.2,426.5 
	453.4,426.5 453.4,423.5 459.3,423.5 459.3,421.7 "/>
<g>
	<path class="st0" d="M468.5,433.4v-5.3c0-1.3-0.7-1.7-1.7-1.7c-0.9,0-1.7,0.6-2.2,1.1v5.9h-1.8v-8.5h1.8v1.1c0.6-0.7,1.7-1.3,3-1.3
		c1.8,0,2.7,1,2.7,2.7v6H468.5z"/>
	<path class="st0" d="M474.5,431.4v-4.9h-1.4v-1.6h1.4v-2.3h1.8v2.3h1.7v1.6h-1.7v4.4c0,0.6,0.3,1,0.8,1c0.4,0,0.7-0.2,0.8-0.3
		l0.4,1.4c-0.3,0.3-0.9,0.5-1.7,0.5C475.2,433.6,474.5,432.8,474.5,431.4"/>
	<path class="st0" d="M481.1,433.4v-8.5h1.8v1.2c0.7-0.8,1.7-1.4,2.8-1.4v1.8c-0.2,0-0.3,0-0.6,0c-0.8,0-1.8,0.5-2.2,1.1v5.8H481.1z
		"/>
	<path class="st0" d="M492.3,426.2c-1.6,0-2.3,1.2-2.4,2.2h4.8C494.7,427.4,494,426.2,492.3,426.2 M488.1,429.1
		c0-2.5,1.8-4.4,4.3-4.4c2.5,0,4.2,1.9,4.2,4.6v0.5H490c0.1,1.3,1.1,2.3,2.7,2.3c0.8,0,1.8-0.3,2.4-0.9l0.8,1.2
		c-0.9,0.8-2.1,1.2-3.4,1.2C489.9,433.6,488.1,431.8,488.1,429.1"/>
	<path class="st0" d="M506.1,429.1c0-1.6-0.9-2.8-2.4-2.8c-0.9,0-1.8,0.5-2.2,1.1v3.3c0.4,0.6,1.3,1.2,2.2,1.2
		C505.2,431.9,506.1,430.8,506.1,429.1 M501.6,432.2v4.4h-1.8v-11.7h1.8v1.1c0.6-0.8,1.6-1.4,2.7-1.4c2.2,0,3.7,1.6,3.7,4.4
		c0,2.8-1.6,4.4-3.7,4.4C503.2,433.6,502.3,433.1,501.6,432.2"/>
	<path class="st0" d="M511.3,433.4v-8.5h1.8v1.2c0.7-0.8,1.7-1.4,2.8-1.4v1.8c-0.2,0-0.3,0-0.6,0c-0.8,0-1.8,0.5-2.2,1.1v5.8H511.3z
		"/>
	<path class="st0" d="M522.5,426.2c-1.6,0-2.3,1.2-2.4,2.2h4.8C524.8,427.4,524.2,426.2,522.5,426.2 M518.2,429.1
		c0-2.5,1.8-4.4,4.3-4.4c2.5,0,4.2,1.9,4.2,4.6v0.5h-6.5c0.1,1.3,1.1,2.3,2.7,2.3c0.8,0,1.8-0.3,2.4-0.9l0.8,1.2
		c-0.9,0.8-2.1,1.2-3.4,1.2C520.1,433.6,518.2,431.8,518.2,429.1"/>
	<path class="st0" d="M535.6,433.4v-5.3c0-1.3-0.7-1.7-1.7-1.7c-0.9,0-1.7,0.6-2.2,1.1v5.9h-1.8v-8.5h1.8v1.1c0.6-0.7,1.7-1.3,3-1.3
		c1.8,0,2.7,1,2.7,2.7v6H535.6z"/>
	<path class="st0" d="M545,426.2c-1.6,0-2.3,1.2-2.4,2.2h4.8C547.3,427.4,546.6,426.2,545,426.2 M540.7,429.1c0-2.5,1.8-4.4,4.3-4.4
		c2.5,0,4.2,1.9,4.2,4.6v0.5h-6.5c0.1,1.3,1.1,2.3,2.7,2.3c0.8,0,1.8-0.3,2.4-0.9l0.8,1.2c-0.9,0.8-2.1,1.2-3.4,1.2
		C542.6,433.6,540.7,431.8,540.7,429.1"/>
	<path class="st0" d="M558.1,433.4v-1.1c-0.6,0.7-1.6,1.3-3,1.3c-1.8,0-2.7-1-2.7-2.7v-6h1.8v5.3c0,1.3,0.7,1.7,1.7,1.7
		c0.9,0,1.7-0.5,2.2-1.1v-5.9h1.8v8.5H558.1z"/>
	<path class="st0" d="M563.7,433.4v-8.5h1.8v1.2c0.7-0.8,1.7-1.4,2.8-1.4v1.8c-0.2,0-0.3,0-0.6,0c-0.8,0-1.8,0.5-2.2,1.1v5.8H563.7z
		"/>
	<path class="st0" d="M570.4,432.2l0.8-1.3c0.6,0.6,1.8,1.2,2.8,1.2c1.1,0,1.7-0.5,1.7-1.1c0-1.7-5.1-0.5-5.1-3.7
		c0-1.4,1.2-2.6,3.3-2.6c1.4,0,2.5,0.5,3.3,1.2l-0.8,1.3c-0.5-0.6-1.4-1-2.5-1c-1,0-1.6,0.5-1.6,1.1c0,1.5,5.1,0.4,5.1,3.7
		c0,1.5-1.2,2.6-3.5,2.6C572.6,433.6,571.3,433.1,570.4,432.2"/>
	<path class="st0" d="M104.8,226.4c8.7,0,15.7-7,15.7-15.7c0-8.7-7-15.7-15.7-15.7c-8.7,0-15.7,7-15.7,15.7
		C89.1,219.4,96.1,226.4,104.8,226.4"/>
	<path class="st0" d="M63.5,387L63.5,387L63.5,387L63.5,387z M168.8,377.2c0-0.1,0-0.2,0-0.2c0-7.2-4.9-13.3-11.5-15.2
		c-1.9-0.7-3.3-2.4-3.5-4.5v-8.6c0-13-10.6-23.5-23.5-23.5c-0.5,0-0.9,0-1.4,0v0c-3.2,0.4-4.5,0.5-8.6,2c-3.7,1.3-0.2-4.7,8.6-6.4
		v-25.4c-4.8,0.4-9.9,0.7-15.1,0.7c-8.6,0-16.9-0.6-24.2-1.8c0,18.2-0.1,22.6-0.1,22.6l-44.1,69.9c-4.4,7.4-7.5,16.5-2.2,22.8
		c0.1-8.3,6.9-15.1,15.3-15.1c8.4,0,15.3,6.9,15.3,15.3v11.8c0.5,0.1,0.9,0.2,1.4,0.3c2.2,0.5,4.5,0.9,6.8,1.3V410
		c0-8.1-4.1-15.2-10.2-19.4v-22.9c0-8.4,6.9-15.3,15.3-15.3c8.1,0,14.7,6.3,15.3,14.2c-7.2,4-12,11.7-12,20.5v37.5
		c2.7,0.3,5.4,0.6,8.2,0.8v-38.2c0-8.4,6.9-15.3,15.3-15.3c8.4,0,15.3,6.9,15.3,15.3v38.2c2.8-0.2,5.5-0.5,8.2-0.8v-37.5
		c0-12.6-10-23-22.5-23.5v-14.8c0-8.4,6.9-15.3,15.3-15.3c8.4,0,15.3,6.9,15.3,15.3v74.7c2.6-0.4,5.1-0.9,7.6-1.5
		c0.2,0,0.4-0.1,0.7-0.1v-34c2.7-2,5.9-3.1,9.3-3.1c8.4,0,15.3,6.9,15.3,15.3v13.2c3.3-1.7,6-3.3,8.2-4.8V400
		C186.6,389,179,379.8,168.8,377.2"/>
	<path class="st0" d="M119.3,394.2l-0.2,0c0,0-3.1,0.2-5.3,0.2c-2.2,0-5.4-0.2-5.4-0.2c-0.6,0-1.1,0.4-1.3,1
		c-0.3,0.8,0.2,1.6,0.9,1.8c0,0,2.7,0.9,5.8,0.9c3.1,0,5.9-0.9,5.9-0.9c0.5-0.2,0.9-0.7,1-1.3C120.7,394.8,120.1,394.2,119.3,394.2"
		/>
	<path class="st0" d="M119.5,383.2c-1.8,0-3.3,1.5-3.3,3.3c0,1.8,1.5,2.4,3.3,2.4c1.8,0,3.3-0.6,3.3-2.4
		C122.7,384.7,121.3,383.2,119.5,383.2"/>
	<path class="st0" d="M111.6,386.5c0-1.8-1.5-3.3-3.3-3.3c-1.8,0-3.3,1.5-3.3,3.3c0,1.8,1.5,2.4,3.3,2.4
		C110.1,388.9,111.6,388.3,111.6,386.5"/>
	<path class="st0" d="M130.8,245.1c6.9,0,12.4-5.6,12.4-12.4c0-6.9-5.6-12.4-12.4-12.4c-6.9,0-12.4,5.6-12.4,12.4
		C118.3,239.5,123.9,245.1,130.8,245.1"/>
	<path class="st0" d="M88.6,374.2l-0.2,0c0,0-3.1,0.2-5.3,0.2c-2.2,0-5.4-0.2-5.4-0.2c-0.6,0-1.1,0.4-1.3,1
		c-0.3,0.8,0.2,1.6,0.9,1.8c0,0,2.7,0.9,5.8,0.9c3.1,0,5.9-0.9,5.9-0.9c0.5-0.2,0.9-0.7,1-1.3C90,374.9,89.4,374.2,88.6,374.2"/>
	<path class="st0" d="M88.7,363.2c-1.8,0-3.3,1.5-3.3,3.3c0,1.8,1.5,2.4,3.3,2.4c1.8,0,3.3-0.6,3.3-2.4
		C92,364.7,90.5,363.2,88.7,363.2"/>
	<path class="st0" d="M81.5,366.5c0-1.8-1.5-3.3-3.3-3.3c-1.8,0-3.3,1.5-3.3,3.3c0,1.8,1.5,2.4,3.3,2.4
		C80,368.9,81.5,368.3,81.5,366.5"/>
	<path class="st0" d="M135.6,345.3c-1.8,0-3.3,1.5-3.3,3.3c0,1.8,1.5,2.4,3.3,2.4c1.8,0,3.3-0.6,3.3-2.4
		C138.9,346.8,137.5,345.3,135.6,345.3"/>
	<path class="st0" d="M127.8,348.6c0-1.8-1.5-3.3-3.3-3.3c-1.8,0-3.3,1.5-3.3,3.3c0,1.8,1.5,2.4,3.3,2.4
		C126.3,351,127.8,350.5,127.8,348.6"/>
	<path class="st0" d="M173.7,395.9c-2.3-1.2-4.7,0.3-5,2.4c-0.2,1.4,0.9,2.7,2.4,2.8c2.5,0.2,4.7-0.4,4.1-3.2
		C175,397.1,174.5,396.4,173.7,395.9"/>
	<path class="st0" d="M164.1,398.3c-0.3-2.1-2.6-3.6-5-2.4c-0.8,0.4-1.3,1.2-1.5,2.1c-0.5,2.8,1.7,3.4,4.1,3.2
		C163.2,401,164.3,399.7,164.1,398.3"/>
	<path class="st0" d="M366,270.8c-13.1,0.5-15.4,8.2-15.4,8.2v-8.1h-15.5v48.9h16.1v-22.9c0-8.6,6.9-12.8,14.8-13.2V270.8z"/>
	<path class="st0" d="M231.4,320.1c3.2-0.9,6.1-2.3,8.5-4.2c2.5-1.9,4.5-4.3,5.9-7.2c1.5-2.9,2.2-6.4,2.2-10.4
		c0-3.5-0.7-6.4-2.1-8.7c-1.4-2.3-3.1-4.3-5.2-5.8c-2.1-1.6-4.4-2.8-7-3.8c-2.6-0.9-5-1.8-7.4-2.6c-1.6-0.5-3.1-1-4.4-1.5
		c-1.3-0.5-2.4-1-3.4-1.6c-1-0.6-1.7-1.3-2.2-2.1c-0.5-0.8-0.7-1.8-0.7-2.9c0-1.4,0.3-2.5,0.9-3.4c0.6-0.9,1.4-1.6,2.3-2.2
		c0.9-0.6,1.9-0.9,3.1-1.1c1.1-0.2,2.3-0.3,3.4-0.3c2.2,0,4.4,0.5,6.7,1.6c2.3,1.1,4.2,2.5,5.6,4.4l10.7-11.3
		c-3.1-2.8-6.7-4.9-10.8-6.4c-4.1-1.4-8.1-2.2-12-2.2c-3.3,0-6.5,0.4-9.7,1.2c-3.2,0.8-6.1,2.1-8.6,3.9c-2.6,1.8-4.6,4-6.2,6.8
		c-1.6,2.8-2.4,6.1-2.4,9.9c0,3.1,0.5,5.8,1.5,8c1,2.2,2.4,4.1,4,5.6c1.7,1.5,3.6,2.8,5.7,3.8c2.1,1,4.3,1.8,6.5,2.6
		c2.3,0.7,4.3,1.4,6.1,2c1.8,0.6,3.3,1.3,4.5,2.1c1.2,0.8,2.1,1.6,2.8,2.5c0.7,0.9,1,2,1,3.3c0,1.4-0.3,2.6-0.8,3.5
		c-0.5,1-1.2,1.8-2.1,2.4c-0.9,0.6-1.9,1-3.1,1.3c-1.2,0.3-2.4,0.4-3.6,0.4c-2.8,0-5.5-0.7-8.3-2.1c-2.8-1.4-5-3.2-6.7-5.3l-11,11.2
		c3.1,3.2,6.9,5.7,11.6,7.4c4.6,1.7,9.5,2.6,14.4,2.6C224.9,321.5,228.2,321,231.4,320.1"/>
	<path class="st0" d="M370.6,310.6c0.6,2.1,1.6,4,2.9,5.5c1.3,1.5,3.1,2.7,5.4,3.5c2.2,0.8,5,1.2,8.3,1.2c1.1,0,2.2-0.1,3.3-0.2
		c2.8-0.2,6.8-1.2,10.4-2.3c-2.7-3.8-4.6-10.8-4.6-10.8c-0.6,0.3-1.3,0.5-2.2,0.6c-0.9,0.1-1.7,0.2-2.5,0.2c-2.3,0-3.9-0.6-4.8-1.7
		c-0.9-1.1-1.3-2.9-1.3-5.2v-18.7h10.4v-12h-10.4v-12.9h-15.8l0.1,45.5C369.7,306.1,370,308.4,370.6,310.6"/>
	<path class="st0" d="M403.8,314.7c1.4,1.9,3.2,3.4,5.5,4.6c2.3,1.2,5,1.8,8.3,1.8c1.7,0,3.3-0.2,4.9-0.7c1.5-0.5,2.9-1,4.2-1.8
		c1.3-0.7,2.4-1.6,3.3-2.6c0.9-1,1.7-2,2.3-3.1h0.2v6.8h15.5v-48.9H432v26.4c0,2.8-0.7,5.3-2.2,7.4c-1.5,2.1-3.6,3.1-6.4,3.1
		c-1.5,0-2.7-0.3-3.6-0.8c-0.9-0.6-1.7-1.3-2.2-2.3c-0.6-1-0.9-2.1-1.1-3.3c-0.2-1.2-0.3-2.6-0.3-3.9v-26.5h-16.2V301
		c0,2.5,0.3,4.9,0.9,7.3C401.4,310.7,402.4,312.9,403.8,314.7"/>
	<path class="st0" d="M469.5,290.5c0.6-1.5,1.3-2.8,2.4-4c1-1.2,2.2-2.1,3.7-2.8c1.4-0.7,3.1-1.1,4.9-1.1c1.9,0,3.6,0.4,5,1.1
		c1.4,0.7,2.6,1.6,3.6,2.8c0.9,1.1,1.7,2.5,2.2,4c0.5,1.5,0.7,3,0.7,4.6s-0.2,3.1-0.7,4.7c-0.5,1.5-1.2,2.9-2.2,4.1
		c-0.9,1.2-2.2,2.1-3.6,2.8c-1.4,0.7-3.1,1.1-5,1.1c-1.8,0-3.5-0.4-4.9-1.1c-1.4-0.7-2.7-1.7-3.7-2.8c-1-1.2-1.8-2.5-2.4-4
		c-0.6-1.5-0.8-3-0.8-4.6S468.9,292,469.5,290.5 M469.2,314l0.2,0.3c1.5,2.1,3.6,3.7,6.3,5c2.7,1.2,5.5,1.8,8.5,1.8
		c3.7,0,6.9-0.7,9.8-2.2c2.9-1.4,5.3-3.4,7.3-5.7c2-2.4,3.5-5.2,4.6-8.3c1-3.1,1.6-6.4,1.6-9.8c0-3.4-0.5-6.7-1.6-9.8
		c-1.1-3.1-2.6-5.8-4.6-8.2c-2-2.4-4.4-4.2-7.3-5.6c-2.9-1.4-6.1-2.1-9.6-2.1c-3.6,0-6.7,0.7-9.4,2.2c-2.7,1.5-4.7,3.2-6.2,5.2
		l-0.3,0.4v-6.4h-15.3v72.5h16.1V314z"/>
</g>
<polygon class="st0" points="295.2,335.1 284.1,381.4 283.8,381.4 274.2,335.1 256.8,335.1 247.3,381.4 247,381.4 236,335.1 
	218,335.1 237.7,404.6 249.1,404.6 254.4,404.6 255.2,404.6 265.3,359.6 275.5,404.6 276.3,404.6 281.6,404.6 292.9,404.6 
	312.7,335.1 "/>
<g>
	<path class="st0" d="M321.3,374.6c0.1-1.2,0.4-2.4,1-3.6c0.6-1.1,1.4-2.1,2.4-3c1-0.8,2.1-1.5,3.4-2c1.3-0.5,2.8-0.7,4.3-0.7
		c3.2,0,5.6,0.9,7.2,2.7c1.6,1.8,2.4,4,2.4,6.6H321.3z M350,361.2c-2.2-2.3-4.7-4-7.8-5.3c-3-1.2-6.3-1.8-9.9-1.8
		c-3.7,0-7.2,0.6-10.4,1.9c-3.2,1.2-6,3-8.3,5.2c-2.4,2.3-4.2,5-5.6,8.3c-1.4,3.2-2.1,6.9-2.1,10.9c0,4.1,0.7,7.8,2.1,11
		c1.4,3.2,3.3,5.9,5.8,8.1c2.5,2.2,5.3,3.9,8.6,5c3.3,1.1,6.7,1.7,10.4,1.7c5,0,9.3-0.9,13.1-2.7c3.8-1.8,6.8-4.4,9.1-7.7l-11.2-7.1
		c-1.1,1.5-2.6,2.7-4.3,3.7c-1.8,0.9-3.9,1.4-6.5,1.4c-1.4,0-2.8-0.2-4.2-0.7c-1.3-0.5-2.6-1.1-3.6-1.9c-1.1-0.8-2-1.8-2.7-2.9
		c-0.7-1.1-1.1-2.4-1.2-3.7h35.5c0.1-0.6,0.1-1.2,0.1-1.9v-2c0-4.2-0.6-7.9-1.8-11.2C353.8,366.3,352.2,363.5,350,361.2"/>
	<path class="st0" d="M375.2,374.6c0.1-1.2,0.4-2.4,1-3.6c0.6-1.1,1.4-2.1,2.4-3c1-0.8,2.1-1.5,3.4-2c1.3-0.5,2.8-0.7,4.3-0.7
		c3.2,0,5.6,0.9,7.2,2.7c1.6,1.8,2.4,4,2.4,6.6H375.2z M403.9,361.2c-2.2-2.3-4.7-4-7.8-5.3c-3-1.2-6.3-1.8-9.9-1.8
		c-3.7,0-7.2,0.6-10.4,1.9c-3.2,1.2-6,3-8.3,5.2c-2.4,2.3-4.2,5-5.6,8.3c-1.4,3.2-2.1,6.9-2.1,10.9c0,4.1,0.7,7.8,2.1,11
		c1.4,3.2,3.3,5.9,5.8,8.1c2.5,2.2,5.3,3.9,8.6,5c3.3,1.1,6.7,1.7,10.4,1.7c5,0,9.3-0.9,13.1-2.7c3.8-1.8,6.8-4.4,9.1-7.7l-11.2-7.1
		c-1.1,1.5-2.6,2.7-4.3,3.7c-1.8,0.9-3.9,1.4-6.5,1.4c-1.4,0-2.8-0.2-4.2-0.7c-1.3-0.5-2.6-1.1-3.6-1.9c-1.1-0.8-2-1.8-2.7-2.9
		c-0.7-1.1-1.1-2.4-1.2-3.7h35.5c0.1-0.6,0.1-1.2,0.1-1.9v-2c0-4.2-0.6-7.9-1.8-11.2C407.7,366.3,406,363.5,403.9,361.2"/>
	<path class="st0" d="M475.5,374.6c0.1-1.2,0.4-2.4,1-3.6c0.6-1.1,1.4-2.1,2.4-3c1-0.8,2.1-1.5,3.4-2c1.3-0.5,2.8-0.7,4.3-0.7
		c3.2,0,5.6,0.9,7.2,2.7c1.6,1.8,2.4,4,2.4,6.6H475.5z M504.1,361.2c-2.2-2.3-4.7-4-7.8-5.3c-3-1.2-6.3-1.8-9.9-1.8
		c-3.7,0-7.2,0.6-10.4,1.9c-3.2,1.2-6,3-8.3,5.2c-2.4,2.3-4.2,5-5.6,8.3c-1.4,3.2-2.1,6.9-2.1,10.9c0,4.1,0.7,7.8,2.1,11
		c1.4,3.2,3.3,5.9,5.8,8.1c2.5,2.2,5.3,3.9,8.6,5c3.3,1.1,6.7,1.7,10.4,1.7c5,0,9.3-0.9,13.1-2.7c3.8-1.8,6.8-4.4,9.1-7.7l-11.2-7.1
		c-1.1,1.5-2.6,2.7-4.3,3.7c-1.8,0.9-3.9,1.4-6.5,1.4c-1.4,0-2.8-0.2-4.2-0.7c-1.3-0.5-2.6-1.1-3.6-1.9c-1.1-0.8-2-1.8-2.7-2.9
		c-0.7-1.1-1.1-2.4-1.2-3.7h35.5c0.1-0.6,0.1-1.2,0.1-1.9v-2c0-4.2-0.6-7.9-1.8-11.2C508,366.3,506.3,363.5,504.1,361.2"/>
	<path class="st0" d="M558.9,360.7c-1.4-1.9-3.3-3.4-5.5-4.6c-2.3-1.2-5.1-1.8-8.4-1.8c-1.7,0-3.3,0.2-4.8,0.7
		c-1.5,0.5-2.9,1-4.2,1.8c-1.3,0.7-2.4,1.6-3.3,2.6c-0.9,1-1.7,2.1-2.3,3.1l-0.2,0.3v-7.1h-15.6v48.9h16.2v-26.5
		c0-1.4,0.2-2.7,0.5-4c0.4-1.3,0.9-2.4,1.6-3.4c0.7-1,1.6-1.7,2.7-2.3c1.1-0.6,2.3-0.8,3.8-0.8c1.4,0,2.6,0.3,3.6,0.8
		c0.9,0.6,1.7,1.3,2.2,2.3c0.5,0.9,0.9,2,1.1,3.3c0.2,1.2,0.3,2.6,0.3,3.9v26.7h16.2v-30.3c0-2.4-0.3-4.8-0.9-7.3
		C561.3,364.7,560.3,362.5,558.9,360.7"/>
	<path class="st0" d="M604,384.7c-0.6,1.5-1.3,2.8-2.4,4c-1,1.2-2.2,2.1-3.7,2.8c-1.4,0.7-3.1,1.1-4.9,1.1c-1.9,0-3.6-0.4-5-1.1
		c-1.4-0.7-2.7-1.7-3.6-2.8c-1-1.2-1.7-2.5-2.2-4.1c-0.5-1.5-0.7-3.1-0.7-4.7s0.2-3.1,0.7-4.6c0.5-1.5,1.2-2.8,2.2-4
		c1-1.1,2.2-2.1,3.6-2.8c1.4-0.7,3.1-1.1,5-1.1c1.8,0,3.5,0.4,4.9,1.1c1.4,0.7,2.7,1.7,3.7,2.8c1,1.2,1.8,2.5,2.4,4
		c0.6,1.5,0.8,3,0.8,4.6C604.8,381.6,604.6,383.2,604,384.7 M604.2,330.4v30.8l-0.2-0.3c-1.4-1.6-3.3-3.1-5.8-4.5
		c-2.5-1.4-5.5-2.1-9.1-2.1c-3.5,0-6.7,0.7-9.6,2.1c-2.8,1.4-5.3,3.2-7.3,5.6c-2,2.4-3.5,5.1-4.6,8.2c-1.1,3.1-1.6,6.4-1.6,9.8
		c0,3.4,0.5,6.7,1.6,9.8c1,3.1,2.6,5.9,4.6,8.3c2,2.4,4.4,4.3,7.3,5.7c2.9,1.4,6.2,2.2,9.8,2.2c3.3,0,6.4-0.7,9.3-2
		c2.9-1.3,5.2-3.3,6.7-5.7l0.2-0.4v6.8h14.8v-74.2H604.2z"/>
	<path class="st0" d="M246.6,282.8h7.9v20.7c0,2.6,0.3,5,0.9,7.1c0.6,2.1,1.6,4,2.9,5.5c1.3,1.5,3.1,2.7,5.3,3.5
		c2.2,0.8,5,1.2,8.3,1.2c1.7,0,3.4-0.1,5.1-0.4c1.5-0.3,3.7-0.9,4.9-1.4c-2-3-3.5-6.7-4.4-10.7c-2.4,0.3-5.1-0.5-6-1.7
		c-0.9-1.2-1.3-2.9-1.3-5.2v-18.7h10.5v-12h-10.5v-12.9h-15.8v12.9h-7.8V282.8z"/>
	<path class="st0" d="M313.5,300.1c0,3.1-0.9,5.5-2.6,7.3s-4.2,2.7-7.5,2.7c-0.8,0-1.6-0.1-2.5-0.3c-0.9-0.2-1.6-0.4-2.3-0.8
		c-0.7-0.4-1.2-0.9-1.6-1.6c-0.4-0.7-0.6-1.4-0.6-2.4c0-1.4,0.5-2.6,1.4-3.5c0.9-0.9,2.1-1.6,3.5-2c1.4-0.5,3-0.8,4.8-0.9
		c1.8-0.2,3.6-0.2,5.3-0.2h2.1V300.1z M297.5,282.7c2.1-1,4.3-1.5,6.6-1.5c2.5,0,4.6,0.6,6.3,1.7c1.7,1.1,2.6,2.9,2.6,5.4v0.8
		c-3.5,0-7.2,0.2-10.9,0.6c-3.7,0.4-7.1,1.2-10.2,2.4c-3,1.2-5.5,2.8-7.5,5c-1.9,2.2-2.9,5-2.9,8.5c0,2.9,0.6,5.3,1.7,7.3
		c1.1,2,2.5,3.5,4.3,4.7c1.7,1.2,3.6,2,5.7,2.6c2.1,0.5,4.1,0.8,6.1,0.8c2.9,0,5.7-0.6,8.2-1.7c2.5-1.1,4.4-2.7,5.6-4.7h0.3v5.2
		h14.7V295c0-4.5-0.4-8.3-1.2-11.5c-0.8-3.2-2.1-5.9-3.9-8.1c-1.8-2.1-4.1-3.7-6.9-4.7c-2.8-1-6.3-1.5-10.5-1.5
		c-4,0-7.9,0.7-11.7,2.1c-3.8,1.4-7.2,3.4-10.1,6.2l8.2,8.7C293.6,284.8,295.4,283.6,297.5,282.7"/>
</g>
<polygon class="st0" points="465.1,404.6 445.4,377.8 464.3,355.7 444.7,355.7 431.2,373 431.2,337.6 431.2,335.1 415,335.1 
	415,404.6 431.2,404.6 431.2,384.1 445.1,404.6 "/>
<g>
	<path class="st0" d="M194,415.9L194,415.9c-0.1,0.1-4.7,5.9-16.3,11.7c-7.2,3.6-15.5,6.4-24.8,8.5c-11.7,2.6-24.9,3.9-39.2,3.9
		c-14.1,0-27.1-1.3-38.7-3.8c-9.2-2-17.5-4.8-24.7-8.3c-11.9-5.8-16.7-11.6-17-11.9l-0.1-0.1c-3-3.8-4.6-8.3-4.6-13.1
		c0-3.8,1-7.5,3-10.8L83,310.6v-19.5l-1.3-1.2c-0.1-0.1-5.2-2.6-9-10c1.5,0.6,3.2,1.2,5.1,1.7c9.7,2.8,22.4,4.4,35.9,4.4
		c13.5,0,26.2-1.5,35.9-4.4c1.8-0.5,3.5-1.1,5-1.7c-3.8,7.3-8.9,9.9-8.9,10l-1.3,1.2v19.5l51.3,81.5c2,3.2,3,7,3,10.8
		C198.6,407.7,197,412.2,194,415.9 M69.1,268L69.1,268c-0.3-0.4-0.2-0.9,0-1.2v0c0.2-0.2,0.4-0.4,0.7-0.7c0.5-0.5,1.3-1,2.4-1.6
		c1.7-1,4.3-2,7.9-3.1c8.9-2.6,20.8-4,33.5-4c12.7,0,24.6,1.4,33.5,4c3.7,1.1,6.2,2.2,7.9,3.1c1.1,0.6,1.8,1.1,2.3,1.6
		c0.3,0.3,0.6,0.5,0.7,0.7l0,0c0.2,0.3,0.3,0.8,0,1.2h0c-0.7,0.8-2.5,2.4-6.8,4c0,0,0,0,0,0c-0.3,0.1-0.7,0.2-1,0.4
		c-0.3,0.1-0.6,0.2-0.9,0.3c-0.7,0.2-1.5,0.5-2.4,0.8c0,0,0,0-0.1,0c-5.5-2.5-17.2-5.3-33.7-5.3c-16.3,0-27.9,2.8-33.5,5.3
		c-0.8-0.2-1.5-0.5-2.2-0.7c-0.3-0.1-0.6-0.2-0.9-0.3c-0.3-0.1-0.7-0.2-1-0.4c0,0,0,0,0,0C71.7,270.4,69.8,268.8,69.1,268
		 M202.8,387.6L202.8,387.6l-50-79.5v-13.5c3.3-3.5,11.7-11.2,13.8-24h0c0.4-3.7,0.8-9.7-8.5-14.2c0,0,0,0,0,0
		c-2.4-1.2-5.2-2.3-8.5-3.2c-9.2-2.7-21.2-4.2-34-4.3c-4.3,4-9.8,3.8-8.5,3.3c1.3-0.5,3.1-2.1,4.1-3.6c1-1.6,1.6-3.4,1.6-5.5
		c0-5.6-4.5-10.1-10.1-10.1c-5.6,0-10.1,4.5-10.1,10.1c0,2.6,1,4.9,2.6,6.7c-6.5,0.7-12.4,1.9-17.5,3.3c-3.3,1-6.1,2-8.5,3.2
		c0,0,0,0,0,0c-0.4,0.2-0.8,0.4-1.1,0.6c-0.6,0.4-1.2,0.7-1.8,1.1c-6,4.1-6,8.9-5.6,12.1c2,13,10.5,20.8,13.8,24.4v13.5l-50,79.4
		l0,0.1c-2.8,4.6-4.2,9.8-4.2,15.2c0,6.6,2.3,13.2,6.4,18.4c0.6,0.8,6.1,7.5,19.2,14c7.8,3.9,16.8,6.9,26.7,9.2
		c12.3,2.7,26.1,4.1,41.1,4.1c14.9,0,28.8-1.4,41.1-4.1c9.9-2.2,18.9-5.3,26.7-9.2c13.1-6.5,18.6-13.2,19.2-14
		c4.1-5.2,6.4-11.7,6.4-18.4C207,397.5,205.6,392.2,202.8,387.6"/>
	<path class="st0" d="M65.6,404.2c-1.8,0-3.3,1.5-3.3,3.3c0,1.8,1.5,2.4,3.3,2.4c1.8,0,3.3-0.6,3.3-2.4
		C68.9,405.7,67.5,404.2,65.6,404.2"/>
	<path class="st0" d="M57.8,407.5c0-1.8-1.5-3.3-3.3-3.3c-1.8,0-3.3,1.5-3.3,3.3c0,1.8,1.5,2.4,3.3,2.4
		C56.3,409.9,57.8,409.3,57.8,407.5"/>
	<path class="st0" d="M135.5,356.3l-0.2,0c0,0-3.1,0.2-5.3,0.2c-2.2,0-5.4-0.2-5.4-0.2c-0.6,0-1.1,0.4-1.3,1
		c-0.3,0.8,0.2,1.6,0.9,1.8c0,0,2.7,0.9,5.8,0.9c3.1,0,5.9-0.9,5.9-0.9c0.5-0.2,0.9-0.7,1-1.3C136.9,357,136.3,356.3,135.5,356.3"/>
	<path class="st0" d="M171.9,406.5l-0.2,0c0,0-3.1,0.2-5.3,0.2c-2.2,0-5.4-0.2-5.4-0.2c-0.6,0-1.1,0.4-1.3,1
		c-0.3,0.8,0.2,1.6,0.9,1.8c0,0,2.7,0.9,5.8,0.9c3.1,0,5.9-0.9,5.9-0.9c0.5-0.2,0.9-0.7,1-1.3C173.3,407.2,172.7,406.5,171.9,406.5"
		/>
</g>
</svg>
